<svg width="549" height="128" viewBox="0 0 549 128" fill="none" xmlns="http://www.w3.org/2000/svg">
<path d="M158.321 100.213C159.897 97.8079 160.949 95.0984 161.411 92.2602C161.532 91.573 161.617 90.8797 161.664 90.1834C161.664 89.8288 161.664 89.4996 161.664 89.145V88.2585V85.4725L161.512 74.3032L161.107 51.9646L160.853 40.8206V35.2232C160.853 34.2608 160.853 33.5263 160.727 32.0573C160.626 30.7112 160.388 29.3789 160.018 28.0809C159.23 25.3195 157.758 22.8017 155.737 20.7614C153.559 18.5562 150.741 17.0939 147.683 16.5824C144.562 16.0886 141.365 16.669 138.616 18.2286C137.368 18.9164 136.218 19.7683 135.197 20.7614L134.462 21.5212L134.007 22.0784L133.095 23.1421C118.481 40.466 108.173 53.003 98.9536 64.4762L80.718 52.9017L74.994 49.4572C86.0367 36.3123 96.5222 23.3701 116.885 0.220947C94.0908 22.1037 82.0603 33.6529 69.5233 45.962C60.6335 40.39 51.7943 34.7927 42.7777 29.246L33.3054 23.3701L28.5692 20.4828L26.1884 19.0138L25.5805 18.6592L24.4915 17.95C23.7224 17.5646 22.9268 17.2345 22.1107 16.9623C18.7045 15.848 15.0177 15.9464 11.6759 17.2409C8.72261 18.3923 6.13938 20.3276 4.20433 22.8382C2.43806 25.1342 1.19347 27.7876 0.557203 30.6137C0.235057 31.9765 0.0484136 33.3678 0 34.7673V37.8826L0.35458 60.2212C0.35458 67.6675 0.607858 75.1137 0.785149 82.5599V88.1319V90.9179C0.800922 92.1029 0.877002 93.2864 1.01309 94.4637C1.40097 97.183 2.39649 99.7801 3.92572 102.062C5.63339 104.544 8.01481 106.486 10.7894 107.659C13.7205 108.858 16.9735 109.019 20.0085 108.115C21.4497 107.672 22.8158 107.015 24.0609 106.165C24.6422 105.768 25.1925 105.328 25.7072 104.848C25.9858 104.62 26.2137 104.367 26.467 104.139L26.7963 103.784L27.0242 103.531L34.6224 95.3248C47.9952 80.787 57.189 70.3521 65.0151 61.2597L72.4613 66.0718L89.3039 76.6586C78.0333 90.8672 66.6867 105.456 48.603 127.946C69.0675 106.595 82.0603 93.3493 94.8253 80.0272L110.224 89.7022L129.194 101.53L133.931 104.468L135.121 105.202L135.703 105.582L136.007 105.76L136.539 106.064C138.045 106.943 139.689 107.56 141.402 107.887C143.161 108.204 144.962 108.204 146.721 107.887C148.397 107.605 150.02 107.067 151.533 106.292C154.269 104.866 156.603 102.776 158.321 100.213ZM27.2521 88.1066L19.274 96.034L19.0461 96.2873H18.8688L18.5902 96.5405L18.0583 96.9204C17.7383 97.0899 17.3978 97.2176 17.0452 97.3004C16.4674 97.4159 15.8673 97.3264 15.3483 97.0471C14.6412 96.5809 14.0576 95.9502 13.6474 95.2092C13.2372 94.4682 13.0126 93.6388 12.9929 92.7921C12.9929 92.2349 12.9929 91.8297 12.9929 90.7406V87.9546V82.3826C13.1617 74.9364 13.3137 67.4902 13.4488 60.0439L14.2086 37.8319V35.2992C14.2309 34.8277 14.3074 34.3603 14.4365 33.9062C14.6392 33.0928 15.0296 32.3382 15.5763 31.7027C15.9355 31.251 16.4071 30.9016 16.9439 30.6896C17.1406 30.6201 17.3551 30.6201 17.5518 30.6896L34.8503 41.8083C42.7018 46.8738 50.5701 51.9392 58.4553 57.0047L27.2521 88.1066ZM148.443 35.2232V40.7446L148.215 51.8886L147.81 74.2272L147.658 85.3965V88.8664C147.67 88.9843 147.67 89.1031 147.658 89.221C147.658 89.4489 147.658 89.6768 147.658 89.9048C147.501 90.7515 147.164 91.5547 146.67 92.2602C146.308 92.7857 145.821 93.2124 145.252 93.5013C145.024 93.5891 144.771 93.5891 144.543 93.5013L144.239 93.324L142.111 91.9563L137.122 88.8664L118.329 76.8106L105.665 68.6805C115.518 58.4737 126.282 46.6965 141.149 30.6137L142.111 29.5752L142.542 29.094L142.795 28.8661C143.117 28.5911 143.475 28.3611 143.859 28.1822C144.402 27.9166 145.021 27.8537 145.606 28.005C146.332 28.2482 146.978 28.6823 147.477 29.2618C147.976 29.8412 148.31 30.5444 148.443 31.2975C148.555 31.7965 148.614 32.3058 148.62 32.8171L148.443 35.2232Z" fill="#E4252C"/>
<path d="M237.291 87.22C237.315 87.6586 237.244 88.0972 237.083 88.5057C236.921 88.9142 236.673 89.2828 236.355 89.5861C236.037 89.8894 235.658 90.1202 235.242 90.2627C234.826 90.4051 234.385 90.4558 233.948 90.4112C233.178 90.4259 232.421 90.2093 231.776 89.7894C231.13 89.3695 230.625 88.7656 230.326 88.0558L213.787 51.8631C211.432 45.3793 207.912 41.3523 200.009 41.3523C191.196 41.3523 186.991 46.4177 186.991 53.6867V99.0478H196.894V54.1932C196.86 53.74 196.928 53.285 197.092 52.8612C197.256 52.4373 197.512 52.0552 197.841 51.7424C198.171 51.4297 198.566 51.1942 198.998 51.053C199.43 50.9118 199.888 50.8684 200.339 50.926C201.128 50.8888 201.907 51.1184 202.551 51.5778C203.194 52.0373 203.664 52.6998 203.885 53.4587L220.423 89.5501C222.779 96.0338 226.375 100.061 234.277 100.061C243.015 100.061 247.295 94.9954 247.295 87.6252V42.3654H237.291V87.22Z" fill="white"/>
<path d="M261.783 42.3652H251.88V99.0476H261.783V42.3652Z" fill="white"/>
<path d="M379.479 42.3652H367.144L348.909 63.2602L331.534 42.3652H315.806L297.595 63.2602L280.196 42.3652H268.039L291.061 69.4907L265.734 99.0476H277.992L297.317 76.5317L316.16 99.0476H329.356L348.655 76.5317L367.473 99.0476H379.479L355.139 70.2506L379.479 42.3652ZM322.695 92.5132L303.801 70.2506L323.708 47.456L342.45 69.5667L322.695 92.5132Z" fill="white"/>
<path d="M414.709 65.717H401.437C394.801 65.717 393.029 62.4244 393.029 58.9799C393.029 55.0542 395.308 52.2682 400.424 52.2682H429.474V42.3652H400.753C388.09 42.3652 383.024 49.2543 383.024 58.6507C383.024 66.5528 386.545 75.0374 401.665 75.0374H414.937C421.902 75.0374 423.826 78.3806 423.826 82.0784C423.826 86.2067 421.294 89.1447 416.026 89.1447H384.139V99.0476H415.696C428.639 99.0476 433.755 92.0067 433.755 82.433C433.755 74.2776 430.133 65.717 414.709 65.717Z" fill="white"/>
<path d="M471.847 42.3652H464.097C447.659 42.3652 438.491 51.7616 438.491 70.8331C438.491 89.9045 447.558 99.0476 464.097 99.0476H471.847C488.386 99.0476 497.453 89.8032 497.453 70.8331C497.453 51.863 488.386 42.3652 471.847 42.3652ZM471.847 89.1447H464.097C453.105 89.1447 448.394 83.7753 448.394 70.8331C448.394 57.8908 453.181 52.2682 464.097 52.2682H471.847C482.763 52.2682 487.449 57.8149 487.449 70.7571C487.449 83.6993 482.763 89.1447 471.847 89.1447Z" fill="white"/>
<path d="M526.199 89.1447C517.284 89.1447 514.599 84.8644 514.599 79.3937V42.3652H504.696V79.4697C504.696 90.8163 510.572 99.0476 525.617 99.0476H548.209V89.1447H526.199Z" fill="white"/>
<path d="M261.783 28.1062H251.88V38.0092H261.783V28.1062Z" fill="#E4252C"/>
</svg>
