<svg width="44" height="46" viewBox="0 0 44 46" fill="none" xmlns="http://www.w3.org/2000/svg">
<path d="M10.3463 40H32.9037C34.047 40 35.0254 39.6126 35.8388 38.8379C36.6523 38.0632 37.081 37.0781 37.125 35.8828V35.75C37.125 34.6875 36.8392 33.6914 36.2676 32.7617L25.8463 18.75V8.85547H27.2314C27.5832 8.85547 27.9129 8.70052 28.2207 8.39062C28.5285 8.08073 28.6824 7.7487 28.6824 7.39453C28.6824 7.04036 28.5285 6.7194 28.2207 6.43164C27.9129 6.14388 27.5832 6 27.2314 6H16.0186C15.6668 6 15.3371 6.14388 15.0293 6.43164C14.7215 6.7194 14.5676 7.04036 14.5676 7.39453C14.5676 7.7487 14.7215 8.08073 15.0293 8.39062C15.3371 8.70052 15.6668 8.85547 16.0186 8.85547H17.4037V18.6172L7.11436 32.6289C6.54273 33.5586 6.25691 34.5104 6.25691 35.4844L6.125 35.75C6.16897 36.9453 6.60869 37.9525 7.44415 38.7715C8.27961 39.5905 9.24699 40 10.3463 40ZM17.4037 23.3984L18.1293 22.6016C19.1846 21.0964 19.8881 19.3919 20.2399 17.4883V8.85547H23.0101V17.3555C23.4059 19.4362 24.1094 21.1185 25.1207 22.4023L25.8463 23.2656L28.6824 27.1172H14.5676L17.4037 23.3984ZM9.35691 34.3555L13.1824 29.1094L10.5771 30.1055H30.7931L33.8931 34.3555C33.981 34.444 34.1129 34.8646 34.2888 35.6172C34.2888 36.0156 34.1459 36.3698 33.8601 36.6797C33.5743 36.9896 33.2555 37.1445 32.9037 37.1445H10.3463C9.9945 37.1445 9.67571 36.9896 9.38989 36.6797C9.10408 36.3698 8.96117 36.0156 8.96117 35.6172C8.96117 35.0417 9.09309 34.6211 9.35691 34.3555Z" fill="#E92129"/>
</svg>
