<svg width="65" height="51" viewBox="0 0 65 51" fill="none" xmlns="http://www.w3.org/2000/svg">
<path d="M63.01 39.48C63.6322 38.5304 64.0479 37.4606 64.23 36.34C64.2781 36.0687 64.3115 35.7949 64.33 35.52C64.33 35.38 64.33 35.25 64.33 35.11V34.76V33.66L64.27 29.25L64.11 20.43L64.01 16.03V13.82C64.01 13.44 64.01 13.15 63.96 12.57C63.9202 12.0385 63.8264 11.5125 63.68 11C63.3691 9.90969 62.7878 8.9156 61.99 8.11C61.1299 7.23932 60.0171 6.66195 58.81 6.46C57.5775 6.26504 56.3153 6.49421 55.23 7.11C54.7374 7.38157 54.2833 7.71789 53.88 8.11L53.59 8.41L53.41 8.63L53.05 9.05C47.28 15.89 43.21 20.84 39.57 25.37L32.37 20.8L30.11 19.44C34.47 14.25 38.61 9.14 46.65 0C37.65 8.64 32.9 13.2 27.95 18.06C24.44 15.86 20.95 13.65 17.39 11.46L13.65 9.14L11.78 8L10.84 7.42L10.6 7.28L10.17 7C9.86634 6.84781 9.55221 6.71748 9.23 6.61C7.88513 6.17005 6.42948 6.20892 5.11 6.72C3.94396 7.17464 2.92402 7.93873 2.16 8.93C1.46262 9.83654 0.971218 10.8842 0.720001 12C0.592808 12.5381 0.519115 13.0874 0.5 13.64V14.87L0.639999 23.69C0.639999 26.63 0.740001 29.57 0.810001 32.51V34.71V35.81C0.816229 36.2779 0.846268 36.7452 0.900002 37.21C1.05315 38.2837 1.44621 39.3091 2.05 40.21C2.72424 41.1899 3.6645 41.9567 4.76 42.42C5.91727 42.8935 7.20167 42.957 8.4 42.6C8.96901 42.4252 9.50841 42.1656 10 41.83C10.2295 41.6734 10.4468 41.4995 10.65 41.31C10.76 41.22 10.85 41.12 10.95 41.03L11.08 40.89L11.17 40.79L14.17 37.55C19.45 31.81 23.08 27.69 26.17 24.1L29.11 26L35.76 30.18C31.31 35.79 26.83 41.55 19.69 50.43C27.77 42 32.9 36.77 37.94 31.51L44.02 35.33L51.51 40L53.38 41.16L53.85 41.45L54.08 41.6L54.2 41.67L54.41 41.79C55.0045 42.1373 55.6537 42.3808 56.33 42.51C57.0244 42.6349 57.7356 42.6349 58.43 42.51C59.0919 42.3987 59.7327 42.1863 60.33 41.88C61.4103 41.3172 62.3318 40.4919 63.01 39.48ZM11.26 34.7L8.11 37.83L8.02 37.93H7.95L7.84 38.03L7.63 38.18C7.50364 38.2469 7.3692 38.2973 7.23 38.33C7.00183 38.3756 6.7649 38.3403 6.56 38.23C6.28081 38.0459 6.05037 37.7969 5.88841 37.5044C5.72645 37.2118 5.63778 36.8843 5.63 36.55C5.63 36.33 5.63 36.17 5.63 35.74V34.64V32.44C5.69667 29.5 5.75667 26.56 5.81 23.62L6.11 14.85V13.85C6.11881 13.6638 6.14901 13.4793 6.2 13.3C6.28003 12.9788 6.43415 12.6809 6.65 12.43C6.79183 12.2516 6.97806 12.1137 7.19 12.03C7.26765 12.0025 7.35236 12.0025 7.43 12.03L14.26 16.42C17.36 18.42 20.4667 20.42 23.58 22.42L11.26 34.7ZM59.11 13.82V16L59.02 20.4L58.86 29.22L58.8 33.63V35C58.8046 35.0466 58.8046 35.0934 58.8 35.14C58.8 35.23 58.8 35.32 58.8 35.41C58.7379 35.7443 58.6049 36.0614 58.41 36.34C58.2671 36.5475 58.0746 36.7159 57.85 36.83C57.7599 36.8647 57.6601 36.8647 57.57 36.83L57.45 36.76L56.61 36.22L54.64 35L47.22 30.24L42.22 27.03C46.11 23 50.36 18.35 56.23 12L56.61 11.59L56.78 11.4L56.88 11.31C57.0072 11.2014 57.1484 11.1106 57.3 11.04C57.5143 10.9351 57.759 10.9103 57.99 10.97C58.2763 11.066 58.5314 11.2375 58.7285 11.4662C58.9256 11.695 59.0574 11.9727 59.11 12.27C59.1542 12.467 59.1776 12.6681 59.18 12.87L59.11 13.82Z" fill="#E4252C"/>
</svg>
